<?xml version="1.0" encoding="utf-8"?>
<!-- Generator: Adobe Illustrator 21.1.0, SVG Export Plug-In . SVG Version: 6.00 Build 0)  -->
<svg version="1.1" id="圖層_1" xmlns="http://www.w3.org/2000/svg" xmlns:xlink="http://www.w3.org/1999/xlink" x="0px" y="0px"
	 viewBox="0 0 120 26" style="enable-background:new 0 0 120 26;" xml:space="preserve">
<style type="text/css">
	.st0{filter:url(#Adobe_OpacityMaskFilter);}
	.st1{fill:#FFFFFF;}
	.st2{mask:url(#b);fill:#FF4E50;}
	.st3{filter:url(#Adobe_OpacityMaskFilter_1_);}
	.st4{mask:url(#d);fill:#FF4E50;}
	.st5{fill:none;stroke:#FF4E50;stroke-width:0.5;}
</style>
<title>Logo small</title>
<g transform="translate(.14)">
	<defs>
		<filter id="Adobe_OpacityMaskFilter" filterUnits="userSpaceOnUse" x="0" y="0" width="28.6" height="25.1">
			<feColorMatrix  type="matrix" values="1 0 0 0 0  0 1 0 0 0  0 0 1 0 0  0 0 0 1 0"/>
		</filter>
	</defs>
	<mask maskUnits="userSpaceOnUse" x="0" y="0" width="28.6" height="25.1" id="b">
		<g class="st0">
			<path id="a" class="st1" d="M0,22.8c0-0.4,0.2-0.9,0.5-1.4l11.7-20c1.2-2,3.1-2,4.2,0l11.7,20c0.3,0.5,0.4,0.9,0.5,1.3v0.5
				c-0.1,1-0.9,1.6-2.3,1.7c-0.8-0.9-2-1.3-3.1-1c-0.4-0.9-1.3-1.5-2.3-1.5c-1,0-1.8,0.5-2.3,1.4c-3.2-1.1-3.9-5.5-3.9-5.5h-0.4v3.3
				v-3.3h-0.4c0,0-0.6,4.5-3.9,5.5c-0.4-0.8-1.3-1.3-2.3-1.4c-1,0-1.9,0.6-2.3,1.5c-1.1-0.3-2.4,0.1-3.1,1C0.9,25,0.1,24.3,0,23.3
				V22.8L0,22.8z M15,16.9h2.2c0.8,0,1.2-0.6,0.8-1.3l-1.4-2.7c0-0.1,0-0.1,0-0.2c0,0-0.1-1.1-0.5-2.9c-0.4-1.8-1.1-2.7-1.1-2.7
				c-0.3-0.6-0.9-0.6-1.3,0c0,0-0.6,0.5-1.1,2.8C12,12.1,12,12.7,12,12.7c0,0.1,0,0.1,0,0.2l-1.4,2.7c-0.4,0.7,0,1.3,0.8,1.3h2.2
				l0.4,0.4c0.2,0.2,0.4,0.2,0.6,0L15,16.9L15,16.9z M14.3,11.6c0.5,0,0.9-0.4,0.9-0.8c0-0.5-0.4-0.8-0.9-0.8
				c-0.5,0-0.9,0.4-0.9,0.8C13.4,11.2,13.8,11.6,14.3,11.6L14.3,11.6z"/>
		</g>
	</mask>
	<path class="st2" d="M0,0h28.6v25.1H0V0z"/>
</g>
<g transform="translate(44.05)">
	<defs>
		<filter id="Adobe_OpacityMaskFilter_1_" filterUnits="userSpaceOnUse" x="0" y="0" width="75.2" height="15.2">
			<feColorMatrix  type="matrix" values="1 0 0 0 0  0 1 0 0 0  0 0 1 0 0  0 0 0 1 0"/>
		</filter>
	</defs>
	<mask maskUnits="userSpaceOnUse" x="0" y="0" width="75.2" height="15.2" id="d">
		<g class="st3">
			<path id="c" class="st1" d="M0.4,15h1.8c0.3,0,0.5-0.2,0.6-0.4l1-2.3h6.2l1,2.3c0.1,0.3,0.3,0.4,0.6,0.4h1.8
				c0.3,0,0.5-0.3,0.4-0.6L7.5,0.2C7.4,0.1,7.3,0,7.1,0H6.9C6.7,0,6.6,0.1,6.5,0.2L0,14.4C-0.1,14.7,0.1,15,0.4,15z M4.9,9.9l2-4.6
				H7l2.1,4.6H4.9L4.9,9.9z M18,14.6c0,0.2,0.2,0.4,0.4,0.4h1.9c0.2,0,0.4-0.2,0.4-0.4V9.2H23l2.8,5.6c0,0.1,0.1,0.2,0.3,0.2h2.2
				c0.4,0,0.5-0.3,0.4-0.6L25.8,9c1.8-0.7,3.1-2.3,3.1-4.3c0-2.5-2-4.5-4.6-4.5h-6c-0.2,0-0.4,0.2-0.4,0.4V14.6L18,14.6z M20.7,6.9
				V2.7h3.4c1.1,0,2.1,0.9,2.1,2c0,1.2-1,2.2-2.1,2.2L20.7,6.9L20.7,6.9z M34.1,14.6c0,0.2,0.2,0.4,0.4,0.4h8.5
				c0.2,0,0.4-0.2,0.4-0.4v-1.7c0-0.2-0.2-0.4-0.4-0.4h-6.2V8.8h5.2c0.2,0,0.4-0.2,0.4-0.4V6.6c0-0.2-0.2-0.4-0.4-0.4h-5.2V2.7h6.2
				c0.2,0,0.4-0.2,0.4-0.4V0.6c0-0.2-0.2-0.4-0.4-0.4h-8.5c-0.2,0-0.4,0.2-0.4,0.4L34.1,14.6L34.1,14.6z M51.3,14.6
				c0,0.2,0.2,0.4,0.4,0.4h1.9c0.2,0,0.4-0.2,0.4-0.4V2.7h3.2c0.2,0,0.4-0.2,0.4-0.4V0.6c0-0.2-0.2-0.4-0.4-0.4h-9.1
				c-0.2,0-0.4,0.2-0.4,0.4v1.7c0,0.2,0.2,0.4,0.4,0.4h3.2V14.6L51.3,14.6z M60.2,7.6c0,4.2,3.3,7.6,7.5,7.6c4.2,0,7.5-3.4,7.5-7.6
				c0-4.2-3.3-7.6-7.5-7.6S60.2,3.4,60.2,7.6L60.2,7.6z M62.8,7.6c0-2.7,2.1-4.9,4.8-4.9c2.6,0,4.8,2.2,4.8,4.9s-2.2,4.8-4.8,4.8
				C65,12.4,62.8,10.3,62.8,7.6L62.8,7.6z"/>
		</g>
	</mask>
	<path class="st4" d="M0,0h75.2v15.2H0V0z"/>
</g>
<g transform="translate(44.05 19.747)">
	<g>
		<path id="e_1_" class="st5" d="M0,5.1C0,5.2,0,5.2,0,5.1l1.4,0c1.3,0,2.4-1,2.4-2.3c0-1.3-1.1-2.3-2.4-2.3H0c0,0,0,0,0,0V5.1z
			 M0.1,5.1V0.7h1.3c1.3,0,2.3,1,2.3,2.2c0,1.2-1,2.2-2.3,2.2H0.1z M7.4,5.1C7.4,5.2,7.4,5.2,7.4,5.1l2.8,0c0,0,0,0,0,0v0
			c0,0,0,0,0,0c0,0,0,0,0,0H7.6V2.9h2.4c0,0,0,0,0,0v0c0,0,0,0,0,0c0,0,0,0,0,0H7.6v-2h2.7c0,0,0,0,0,0v0c0,0,0,0,0,0H7.5
			c0,0,0,0,0,0V5.1z M15.4,5.3C15.4,5.3,15.4,5.3,15.4,5.3l2.2-4.6c0,0,0,0,0,0l-0.1,0c0,0,0,0,0,0l-2,4.5l-2-4.5c0,0,0,0,0,0
			l-0.1,0c0,0,0,0,0,0L15.4,5.3L15.4,5.3z M21.3,5.1C21.3,5.2,21.3,5.2,21.3,5.1l2.8,0c0,0,0,0,0,0v0c0,0,0,0,0,0h-2.7V2.9h2.4
			c0,0,0,0,0,0v0c0,0,0,0,0,0c0,0,0,0,0,0h-2.4v-2h2.7c0,0,0,0,0,0v0c0,0,0,0,0,0h-2.8c0,0,0,0,0,0L21.3,5.1L21.3,5.1z M27.9,5.1
			C27.9,5.2,27.9,5.2,27.9,5.1l2.5,0c0,0,0,0,0,0v0c0,0,0,0,0,0c0,0,0,0,0,0H28V0.6c0,0,0,0,0,0h0c0,0,0,0,0,0L27.9,5.1L27.9,5.1z
			 M33.7,2.9c0,1.3,1.1,2.4,2.5,2.4s2.5-1,2.5-2.4s-1.1-2.4-2.5-2.4S33.7,1.6,33.7,2.9z M33.9,2.9c0-1.2,1-2.2,2.3-2.2
			c1.3,0,2.3,1,2.3,2.2c0,1.3-1,2.2-2.3,2.2C34.9,5.1,33.9,4.1,33.9,2.9L33.9,2.9z M42.8,5.1C42.8,5.2,42.8,5.2,42.8,5.1L42.8,5.1
			c0.1,0,0.1,0,0.1,0V3.6h1.3c0.9,0,1.6-0.7,1.6-1.5c0-0.8-0.7-1.5-1.6-1.5h-1.4c0,0,0,0,0,0L42.8,5.1L42.8,5.1z M42.9,3.5V0.7h1.3
			c0.8,0,1.4,0.6,1.4,1.4c0,0.8-0.7,1.4-1.4,1.4L42.9,3.5L42.9,3.5z M49.3,5.1C49.3,5.2,49.3,5.2,49.3,5.1L49.3,5.1
			c0.1,0.1,0.1,0.1,0.1,0l1-4.3l1.5,4.4c0,0,0.1,0,0.1,0l1.4-4.4l1,4.3c0,0,0,0,0,0l0.1,0c0,0,0,0,0-0.1l-1-4.6c0,0-0.1,0-0.1,0
			l-1.5,4.4l-1.5-4.4c0,0-0.1,0-0.1,0L49.3,5.1L49.3,5.1z M58.5,5.1C58.5,5.2,58.6,5.2,58.5,5.1l2.8,0c0,0,0,0,0,0v0c0,0,0,0,0,0
			h-2.7V2.9H61c0,0,0,0,0,0v0c0,0,0,0,0,0c0,0,0,0,0,0h-2.4v-2h2.7c0,0,0,0,0,0v0c0,0,0,0,0,0h-2.8c0,0,0,0,0,0L58.5,5.1L58.5,5.1z
			 M65.1,5.1C65.1,5.2,65.2,5.2,65.1,5.1L65.1,5.1c0.1,0,0.1,0,0.1,0V0.7l3.5,4.5c0,0,0.1,0,0.1,0V0.6c0,0,0,0-0.1,0h0c0,0,0,0,0,0
			V5l-3.5-4.5c0,0-0.1,0-0.1,0L65.1,5.1L65.1,5.1z M73.9,5C73.9,5,73.9,5.1,73.9,5L73.9,5C74,5.1,74,5,74,5V0.6h1.4c0,0,0,0,0,0v0
			c0,0,0,0,0,0c0,0,0,0,0,0h-3c0,0,0,0,0,0c0,0,0,0,0,0v0c0,0,0,0,0,0h1.4L73.9,5L73.9,5z"/>
	</g>
</g>
</svg>
